<?xml version="1.0" standalone="no"?>
<!DOCTYPE svg PUBLIC "-//W3C//DTD SVG 20010904//EN"
 "http://www.w3.org/TR/2001/REC-SVG-20010904/DTD/svg10.dtd">
<svg version="1.0" xmlns="http://www.w3.org/2000/svg"
 width="572.000000pt" height="572.000000pt" viewBox="0 0 572.000000 572.000000"
 preserveAspectRatio="xMidYMid meet">
<metadata>
Created by potrace 1.14, written by Peter Selinger 2001-2017
</metadata>
<g transform="translate(0.000000,572.000000) scale(0.100000,-0.100000)"
fill="#000000" stroke="none">
<path d="M3265 5709 c-834 -75 -1497 -447 -1868 -1049 -51 -83 -157 -300 -157
-322 0 -8 -4 -18 -9 -23 -7 -8 -38 -93 -47 -130 -2 -5 -10 -35 -19 -65 -24
-78 -75 -320 -74 -350 0 -15 8 -1 18 35 39 127 125 324 203 459 43 76 154 245
188 286 20 24 20 24 -1 -25 -50 -118 -117 -334 -134 -435 -3 -19 -10 -51 -15
-70 -6 -19 -9 -55 -9 -80 1 -25 3 -36 6 -25 18 81 127 346 157 385 7 8 27 44
45 80 49 95 52 93 19 -17 -16 -54 -31 -105 -33 -113 -2 -8 -9 -37 -15 -65 -6
-27 -14 -59 -16 -70 -2 -11 -6 -31 -9 -45 -3 -14 -8 -43 -11 -65 -3 -22 -7
-48 -10 -57 -3 -10 -3 -18 -1 -18 3 0 19 43 37 95 17 53 38 108 46 123 7 15
14 30 14 35 0 29 207 397 240 427 3 3 25 32 49 65 235 315 602 611 1006 813
109 55 336 152 354 152 6 0 19 4 29 10 9 5 52 21 95 36 42 15 77 28 77 29 0 4
-81 0 -155 -6z"/>
<path d="M3556 5698 c-2 -7 -12 -44 -21 -83 -67 -288 -207 -567 -379 -754
-201 -218 -315 -304 -986 -746 -969 -638 -1336 -985 -1545 -1462 -47 -108
-100 -281 -111 -362 -3 -25 -8 -55 -11 -66 -3 -11 -7 -94 -8 -185 -3 -170 10
-304 41 -424 9 -33 17 -65 18 -71 16 -76 96 -286 152 -397 46 -91 139 -241
171 -276 21 -23 23 -24 13 -5 -11 23 -43 167 -57 258 -15 100 -6 525 12 554 2
4 6 24 9 46 13 83 58 244 97 350 42 112 152 344 189 395 11 15 20 31 20 34 0
11 124 187 196 278 91 114 233 268 339 368 60 57 72 65 50 35 -16 -22 -39 -50
-51 -61 -11 -12 -38 -44 -60 -70 -21 -27 -42 -51 -45 -54 -10 -9 -114 -152
-166 -230 -171 -254 -290 -573 -318 -850 -7 -70 -7 -271 0 -330 39 -322 178
-654 390 -930 63 -82 214 -250 203 -225 -38 83 -48 107 -48 118 0 7 -4 17 -9
22 -10 11 -58 158 -66 203 -3 15 -7 38 -11 52 -42 184 -51 510 -20 725 21 141
73 337 135 505 65 174 245 510 356 663 154 213 269 351 453 546 51 54 186 201
214 233 11 13 29 34 41 48 382 439 669 920 792 1324 48 161 54 189 73 350 9
71 7 282 -2 326 -17 77 -39 160 -42 160 -3 0 -6 -6 -8 -12z"/>
<path d="M3700 5633 c0 -8 7 -52 25 -148 8 -47 19 -202 19 -280 -1 -302 -66
-551 -230 -877 -78 -155 -148 -275 -364 -618 -310 -493 -429 -698 -595 -1025
-153 -301 -267 -604 -289 -770 -4 -27 -9 -51 -10 -54 -2 -3 -7 -33 -11 -66 -4
-33 -9 -71 -12 -85 -7 -49 -9 -282 -2 -333 17 -123 21 -147 44 -243 77 -325
283 -646 577 -897 62 -53 309 -220 315 -213 3 2 -17 31 -43 63 -177 217 -321
572 -359 888 -3 28 -10 82 -14 120 -9 73 -7 374 3 435 9 58 16 109 22 158 3
25 7 48 9 52 2 3 6 26 10 50 14 99 111 443 154 545 5 11 26 63 47 115 52 132
58 132 18 -1 -34 -110 -77 -273 -89 -334 -24 -124 -36 -200 -43 -260 -9 -91
-9 -372 1 -455 66 -561 397 -1019 933 -1289 102 -51 233 -105 240 -98 2 2 -22
27 -55 55 -115 101 -251 280 -340 447 -85 159 -168 390 -195 540 -10 53 -25
139 -30 169 -10 57 -20 244 -20 366 0 124 11 339 19 363 2 6 6 37 10 67 5 51
18 134 30 205 23 126 115 463 166 605 71 198 168 500 197 610 11 41 23 82 26
90 3 8 8 26 11 40 2 14 16 72 30 130 14 58 27 121 30 140 4 19 8 41 10 48 3 7
7 34 11 60 3 26 8 49 11 52 6 5 -3 -264 -11 -345 -7 -60 -17 -142 -21 -170 -2
-11 -7 -40 -11 -65 -4 -25 -8 -49 -10 -55 -1 -5 -7 -32 -13 -60 -24 -118 -17
-90 -86 -310 -48 -150 -106 -371 -121 -459 -2 -17 -7 -38 -9 -46 -2 -8 -7 -46
-11 -85 -3 -38 -8 -73 -10 -76 -7 -12 -18 -240 -18 -369 0 -132 8 -278 19
-356 2 -21 7 -52 9 -69 21 -151 55 -297 105 -450 l29 -90 -1 185 c-2 212 6
301 34 418 29 118 84 246 134 310 91 120 202 199 360 257 18 6 16 9 -15 23
-222 101 -331 180 -410 301 -42 63 -37 66 18 11 94 -94 258 -185 412 -228 138
-39 204 -46 407 -45 284 2 329 14 372 96 32 64 36 182 9 326 -35 184 -35 193
3 248 19 26 32 55 30 63 -1 8 -23 36 -47 63 -24 27 -44 53 -44 57 0 5 10 12
23 15 33 11 67 46 67 70 0 12 -13 40 -29 62 -46 64 -61 99 -77 180 -22 119
-23 118 44 143 159 59 167 104 40 211 -67 56 -305 215 -404 269 -89 49 -87 47
-57 87 31 40 53 142 44 199 l-6 39 -19 -48 c-10 -26 -30 -62 -44 -79 l-27 -31
-16 114 c-27 183 -55 289 -115 433 -121 289 -387 597 -664 767 -25 15 -65 51
-88 80 -23 28 -42 47 -42 42z"/>
</g>
</svg>
